# Blender v2.76 (sub 0) OBJ File: ''
# www.blender.org
mtllib item1.mtl
o Torus
v 1.500000 0.000000 0.000000
v 1.311745 0.390916 0.000000
v 0.888740 0.487464 0.000000
v 0.549516 0.216942 0.000000
v 0.549516 -0.216942 0.000000
v 0.888740 -0.487464 0.000000
v 1.311745 -0.390916 0.000000
v 0.463526 0.000000 -1.426585
v 0.405352 0.390916 -1.247543
v 0.274636 0.487464 -0.845242
v 0.169810 0.216942 -0.522620
v 0.169810 -0.216942 -0.522620
v 0.274636 -0.487464 -0.845242
v 0.405352 -0.390916 -1.247543
v -1.213526 0.000000 -0.881678
v -1.061224 0.390916 -0.771024
v -0.719006 0.487464 -0.522388
v -0.444568 0.216942 -0.322997
v -0.444568 -0.216942 -0.322997
v -0.719006 -0.487464 -0.522388
v -1.061224 -0.390916 -0.771024
v -1.213526 0.000000 0.881678
v -1.061224 0.390916 0.771024
v -0.719006 0.487464 0.522388
v -0.444568 0.216942 0.322997
v -0.444568 -0.216942 0.322997
v -0.719006 -0.487464 0.522388
v -1.061224 -0.390916 0.771024
v 0.463526 0.000000 1.426585
v 0.405352 0.390916 1.247543
v 0.274636 0.487464 0.845242
v 0.169810 0.216942 0.522620
v 0.169810 -0.216942 0.522620
v 0.274636 -0.487464 0.845242
v 0.405352 -0.390916 1.247543
vn 0.753800 0.363000 -0.547700
vn 0.219700 0.962400 -0.159600
vn -0.567900 0.712200 0.412600
vn -0.809000 0.000000 0.587800
vn -0.567900 -0.712200 0.412600
vn 0.219700 -0.962400 -0.159600
vn 0.753800 -0.363000 -0.547700
vn -0.287900 0.363000 -0.886200
vn -0.083900 0.962400 -0.258200
vn 0.216900 0.712200 0.667600
vn 0.309000 0.000000 0.951100
vn 0.216900 -0.712200 0.667600
vn -0.083900 -0.962400 -0.258200
vn -0.287900 -0.363000 -0.886200
vn -0.931800 0.363000 0.000000
vn -0.271500 0.962400 0.000000
vn 0.702000 0.712200 0.000000
vn 1.000000 0.000000 0.000000
vn 0.702000 -0.712200 0.000000
vn -0.271500 -0.962400 0.000000
vn -0.931800 -0.363000 0.000000
vn -0.287900 0.363000 0.886200
vn -0.083900 0.962400 0.258200
vn 0.216900 0.712200 -0.667600
vn 0.309000 0.000000 -0.951100
vn 0.216900 -0.712200 -0.667600
vn -0.083900 -0.962400 0.258200
vn -0.287900 -0.363000 0.886200
vn 0.753800 0.363000 0.547700
vn 0.219700 0.962400 0.159600
vn -0.567900 0.712200 -0.412600
vn -0.809000 0.000000 -0.587800
vn -0.567900 -0.712200 -0.412600
vn 0.219700 -0.962400 0.159600
vn 0.753800 -0.363000 0.547700
usemtl None
s off
f 1//1 8//1 9//1 2//1
f 2//2 9//2 10//2 3//2
f 3//3 10//3 11//3 4//3
f 4//4 11//4 12//4 5//4
f 5//5 12//5 13//5 6//5
f 6//6 13//6 14//6 7//6
f 1//7 7//7 14//7 8//7
f 8//8 15//8 16//8 9//8
f 9//9 16//9 17//9 10//9
f 10//10 17//10 18//10 11//10
f 11//11 18//11 19//11 12//11
f 12//12 19//12 20//12 13//12
f 13//13 20//13 21//13 14//13
f 14//14 21//14 15//14 8//14
f 15//15 22//15 23//15 16//15
f 16//16 23//16 24//16 17//16
f 17//17 24//17 25//17 18//17
f 18//18 25//18 26//18 19//18
f 19//19 26//19 27//19 20//19
f 20//20 27//20 28//20 21//20
f 21//21 28//21 22//21 15//21
f 22//22 29//22 30//22 23//22
f 23//23 30//23 31//23 24//23
f 24//24 31//24 32//24 25//24
f 25//25 32//25 33//25 26//25
f 26//26 33//26 34//26 27//26
f 27//27 34//27 35//27 28//27
f 28//28 35//28 29//28 22//28
f 29//29 1//29 2//29 30//29
f 30//30 2//30 3//30 31//30
f 31//31 3//31 4//31 32//31
f 32//32 4//32 5//32 33//32
f 33//33 5//33 6//33 34//33
f 34//34 6//34 7//34 35//34
f 35//35 7//35 1//35 29//35
