# Blender v2.76 (sub 0) OBJ File: ''
# www.blender.org
mtllib item4.mtl
o Cilindro
v 0.000000 -1.000000 -1.000000
v 0.000000 1.000000 -1.000000
v 0.781832 -1.000000 -0.623490
v 0.781832 1.000000 -0.623490
v 0.974928 -1.000000 0.222521
v 0.974928 1.000000 0.222521
v 0.433884 -1.000000 0.900969
v 0.433884 1.000000 0.900969
v -0.433884 -1.000000 0.900969
v -0.433884 1.000000 0.900969
v -0.974928 -1.000000 0.222521
v -0.974928 1.000000 0.222521
v -0.781832 -1.000000 -0.623490
v -0.781832 1.000000 -0.623490
v -0.000000 0.000000 -0.500000
v 0.390916 0.000000 -0.311745
v 0.487464 0.000000 0.111260
v 0.216942 0.000000 0.450484
v -0.216942 0.000000 0.450484
v -0.487464 0.000000 0.111260
v -0.390916 0.000000 -0.311745
v 0.000000 0.500000 -1.000000
v 0.781832 0.500000 -0.623490
v 0.974928 0.500000 0.222521
v 0.433884 0.500000 0.900969
v -0.433884 0.500000 0.900969
v -0.974928 0.500000 0.222521
v -0.781832 0.500000 -0.623490
v 0.781832 -0.500000 -0.623490
v 0.974928 -0.500000 0.222521
v 0.433884 -0.500000 0.900969
v -0.433884 -0.500000 0.900969
v -0.974928 -0.500000 0.222521
v -0.781832 -0.500000 -0.623490
v 0.000000 -0.500000 -1.000000
vn 0.433900 0.000000 -0.901000
vn 0.974900 0.000000 -0.222500
vn 0.781800 0.000000 0.623500
vn 0.000000 0.000000 1.000000
vn -0.781800 0.000000 0.623500
vn 0.000000 1.000000 0.000000
vn -0.433900 0.000000 -0.901000
vn -0.974900 0.000000 -0.222500
vn 0.000000 -1.000000 0.000000
vn -0.724300 0.669400 -0.165300
vn -0.322300 0.669400 -0.669400
vn -0.580900 0.669400 0.463200
vn 0.000000 0.669400 0.742900
vn 0.580900 0.669400 0.463200
vn 0.724300 0.669400 -0.165300
vn 0.322300 0.669400 -0.669400
vn -0.724300 -0.669400 -0.165300
vn -0.322300 -0.669400 -0.669400
vn -0.580900 -0.669400 0.463200
vn 0.000000 -0.669400 0.742900
vn 0.580900 -0.669400 0.463200
vn 0.724300 -0.669400 -0.165300
vn 0.322300 -0.669400 -0.669400
usemtl None
s off
f 22//1 2//1 4//1 23//1
f 23//2 4//2 6//2 24//2
f 24//3 6//3 8//3 25//3
f 25//4 8//4 10//4 26//4
f 26//5 10//5 12//5 27//5
f 4//6 2//6 14//6 12//6 10//6 8//6 6//6
f 28//7 14//7 2//7 22//7
f 27//8 12//8 14//8 28//8
f 1//9 3//9 5//9 7//9 9//9 11//9 13//9
f 33//10 20//10 21//10 34//10
f 34//11 21//11 15//11 35//11
f 32//12 19//12 20//12 33//12
f 31//13 18//13 19//13 32//13
f 30//14 17//14 18//14 31//14
f 29//15 16//15 17//15 30//15
f 35//16 15//16 16//16 29//16
f 20//17 27//17 28//17 21//17
f 21//18 28//18 22//18 15//18
f 19//19 26//19 27//19 20//19
f 18//20 25//20 26//20 19//20
f 17//21 24//21 25//21 18//21
f 16//22 23//22 24//22 17//22
f 15//23 22//23 23//23 16//23
f 1//1 35//1 29//1 3//1
f 3//2 29//2 30//2 5//2
f 5//3 30//3 31//3 7//3
f 7//4 31//4 32//4 9//4
f 9//5 32//5 33//5 11//5
f 13//7 34//7 35//7 1//7
f 11//8 33//8 34//8 13//8
