# Blender v2.76 (sub 0) OBJ File: 'GGJ2016.blend'
# www.blender.org
mtllib totem.mtl
o Totem_Cilindro
v 0.000000 -1.000000 -1.000000
v 0.000000 4.118091 -1.324674
v 0.642788 -1.000000 -0.766044
v 0.851484 4.118091 -1.014759
v 0.984808 -1.000000 -0.173648
v 1.304549 4.118091 -0.230027
v 0.866025 -1.000000 0.500000
v 1.147202 4.118091 0.662337
v 0.342020 -1.000000 0.939693
v 0.453065 4.118091 1.244786
v -0.342020 -1.000000 0.939693
v -0.453065 4.118091 1.244786
v -0.866025 -1.000000 0.500000
v -1.147201 4.118091 0.662337
v -0.984808 -1.000000 -0.173648
v -1.304549 4.118091 -0.230027
v -0.642788 -1.000000 -0.766044
v -0.851484 4.118091 -1.014759
v -0.000000 0.716647 -0.621040
v 0.399197 0.716647 -0.475744
v 0.611605 0.716647 -0.107842
v 0.537836 0.716647 0.310520
v 0.212408 0.716647 0.583586
v -0.212408 0.716647 0.583586
v -0.537836 0.716647 0.310520
v -0.611605 0.716647 -0.107842
v -0.399197 0.716647 -0.475744
v -0.000000 2.283620 -0.632619
v 0.406640 2.283620 -0.484614
v 0.623008 2.283620 -0.109853
v 0.547864 2.283620 0.316309
v 0.216368 2.283620 0.594467
v -0.216369 2.283620 0.594467
v -0.547864 2.283620 0.316309
v -0.623008 2.283620 -0.109853
v -0.406640 2.283620 -0.484614
v -0.000000 3.506023 -0.935523
v 0.601343 3.506023 -0.716652
v 0.921310 3.506023 -0.162452
v 0.810187 3.506023 0.467762
v 0.319968 3.506023 0.879104
v -0.319968 3.506023 0.879104
v -0.810187 3.506023 0.467761
v -0.921310 3.506023 -0.162452
v -0.601343 3.506023 -0.716652
v 0.000000 4.607183 -0.949846
v 0.610549 4.607183 -0.727624
v 0.935416 4.607183 -0.164939
v 0.822591 4.607183 0.474923
v 0.324866 4.607183 0.892564
v -0.324867 4.607183 0.892563
v -0.822591 4.607183 0.474923
v -0.935416 4.607183 -0.164939
v -0.610549 4.607183 -0.727624
v 0.503991 2.894822 -0.600633
v -1.257367 2.654302 -1.028029
v 0.679025 2.894822 0.392036
v 0.268168 2.894822 0.736786
v 1.518983 2.654302 -0.574897
v -0.679025 2.894822 0.392035
v -0.772159 2.894822 -0.136152
v -0.000000 2.894822 -0.784071
v -0.000000 3.200422 -0.859797
v 0.552667 3.200422 -0.658643
v 0.846735 3.200422 -0.149302
v 0.744606 3.200422 0.429899
v 0.294068 3.200422 0.807945
v -0.294068 3.200422 0.807945
v -0.744606 3.200422 0.429898
v -0.846735 3.200422 -0.149302
v -0.552667 3.200422 -0.658643
v 0.455315 2.589221 -0.542624
v 0.697583 2.589221 -0.123003
v 0.613445 2.589221 0.354173
v 0.242268 2.589221 0.665627
v -0.242268 2.589221 0.665626
v -0.613445 2.589221 0.354172
v -0.697583 2.589221 -0.123003
v -0.455315 2.589221 -0.542624
v -0.000000 2.589221 -0.708345
v -0.261616 2.654302 1.602926
v -0.583418 2.654302 1.602926
v -0.829932 2.654302 1.396076
v -0.246076 2.837662 1.645622
v -0.598958 2.837662 1.645622
v -0.869281 2.837662 1.418794
v -0.277156 2.470941 1.560231
v -0.567878 2.470941 1.560230
v -0.790584 2.470941 1.373358
v 1.679883 2.654302 -0.296209
v 1.624003 2.654302 0.020704
v 1.548188 2.837662 -0.609703
v 1.724629 2.837662 -0.304098
v 1.663352 2.837662 0.043422
v 1.489777 2.470941 -0.540091
v 1.635138 2.470941 -0.288319
v 1.584655 2.470941 -0.002014
v -1.096466 2.654302 -1.306717
v -0.794072 2.654302 -1.416780
v -0.794072 2.837662 -1.462216
v -1.302112 2.837662 -1.035919
v -1.125672 2.837662 -1.341523
v -1.212622 2.470941 -1.020139
v -1.067261 2.470941 -1.271911
v -0.794072 2.470941 -1.371344
v 0.000000 4.407184 -0.569908
v 0.366330 4.407184 -0.436575
v 0.561250 4.407184 -0.098963
v 0.493555 4.407184 0.284954
v 0.194920 4.407184 0.535538
v -0.194920 4.407184 0.535538
v -0.493554 4.407184 0.284954
v -0.561249 4.407184 -0.098963
v -0.366330 4.407184 -0.436575
v -0.610549 4.607183 -0.727624
v -0.935416 4.607183 -0.164939
v -0.822591 4.607183 0.474923
v -0.324867 4.607183 0.892563
v 0.324866 4.607183 0.892564
v 0.822591 4.607183 0.474923
v 0.935416 4.607183 -0.164939
v 0.610549 4.607183 -0.727624
v 0.000000 4.607183 -0.949846
vn 0.293600 -0.512900 -0.806700
vn 0.743400 -0.512900 -0.429200
vn 0.845400 -0.512900 0.149100
vn 0.551800 -0.512900 0.657600
vn -0.000000 -0.512900 0.858500
vn -0.551800 -0.512900 0.657600
vn -0.845400 -0.512900 0.149100
vn -0.521600 0.584400 0.621600
vn -0.293600 -0.512900 -0.806700
vn -0.743400 -0.512900 -0.429200
vn 0.000000 -1.000000 -0.000000
vn -0.848000 0.203100 -0.489600
vn -0.334900 0.203100 -0.920100
vn -0.964300 0.203100 0.170000
vn -0.629400 0.203100 0.750100
vn -0.000000 0.203100 0.979200
vn 0.629400 0.203100 0.750100
vn 0.964300 0.203100 0.170000
vn 0.848000 0.203100 -0.489600
vn 0.334900 0.203100 -0.920100
vn -0.866000 -0.006900 -0.500000
vn -0.342000 -0.006900 -0.939700
vn -0.984800 -0.006900 0.173600
vn -0.642800 -0.006900 0.766000
vn -0.000000 -0.006900 1.000000
vn 0.642800 -0.006900 0.766000
vn 0.984800 -0.006900 0.173600
vn 0.866000 -0.006900 -0.500000
vn 0.342000 -0.006900 -0.939700
vn -0.843500 -0.226800 -0.487000
vn -0.333100 -0.226800 -0.915200
vn -0.959100 -0.226800 0.169100
vn -0.626000 -0.226800 0.746100
vn -0.000000 -0.226800 0.973900
vn 0.626000 -0.226800 0.746100
vn 0.959100 -0.226800 0.169100
vn 0.843500 -0.226800 -0.487000
vn 0.333100 -0.226800 -0.915200
vn 0.000000 0.000000 1.000000
vn -0.000000 0.584400 0.811500
vn 0.521600 0.584400 0.621600
vn 0.277500 0.584400 -0.762500
vn 0.799100 0.584400 0.140900
vn 0.702800 0.584400 -0.405700
vn -0.277500 0.584400 -0.762500
vn -0.702800 0.584400 -0.405700
vn -0.799100 0.584400 0.140900
vn 0.344200 0.917600 -0.198700
vn -0.113500 -0.991400 0.065500
vn -0.255400 0.917600 0.304400
vn 0.860400 -0.183600 0.475300
vn -0.841900 -0.183600 0.507500
vn 0.646000 -0.183600 -0.740900
vn -0.018600 -0.183600 -0.982800
vn 0.318700 -0.183600 0.929900
vn -0.964700 -0.183600 -0.189000
vn 0.000000 -0.991400 -0.131100
vn -0.135900 0.917600 -0.373400
vn 0.113500 -0.991400 0.065500
vn 0.084300 -0.991400 -0.100400
vn 0.000000 0.917600 0.397400
vn -0.129100 -0.991400 -0.022800
vn 0.391400 0.917600 0.069000
vn 0.044800 -0.991400 0.123200
vn -0.344200 0.917600 -0.198700
vn 0.481300 0.872400 -0.084900
vn 0.000000 1.000000 0.000000
vn 0.423200 0.872400 0.244400
vn -0.314100 0.872400 -0.374400
vn 0.314100 0.872400 -0.374400
vn -0.481300 0.872400 -0.084900
vn -0.167200 0.872400 0.459300
vn -0.423200 0.872400 0.244400
vn 0.000000 0.872400 -0.488700
vn 0.167200 0.872400 0.459300
usemtl None
s off
f 37//1 2//1 4//1 38//1
f 38//2 4//2 6//2 39//2
f 39//3 6//3 8//3 40//3
f 40//4 8//4 10//4 41//4
f 41//5 10//5 12//5 42//5
f 42//6 12//6 14//6 43//6
f 43//7 14//7 16//7 44//7
f 14//8 12//8 51//8 52//8
f 45//9 18//9 2//9 37//9
f 44//10 16//10 18//10 45//10
f 1//11 3//11 5//11 7//11 9//11 11//11 13//11 15//11 17//11
f 15//12 26//12 27//12 17//12
f 17//13 27//13 19//13 1//13
f 13//14 25//14 26//14 15//14
f 11//15 24//15 25//15 13//15
f 9//16 23//16 24//16 11//16
f 7//17 22//17 23//17 9//17
f 5//18 21//18 22//18 7//18
f 3//19 20//19 21//19 5//19
f 1//20 19//20 20//20 3//20
f 26//21 35//21 36//21 27//21
f 27//22 36//22 28//22 19//22
f 25//23 34//23 35//23 26//23
f 24//24 33//24 34//24 25//24
f 23//25 32//25 33//25 24//25
f 22//26 31//26 32//26 23//26
f 21//27 30//27 31//27 22//27
f 20//28 29//28 30//28 21//28
f 19//29 28//29 29//29 20//29
f 70//30 44//30 45//30 71//30
f 71//31 45//31 37//31 63//31
f 69//32 43//32 44//32 70//32
f 68//33 42//33 43//33 69//33
f 67//34 41//34 42//34 68//34
f 66//35 40//35 41//35 67//35
f 65//36 39//36 40//36 66//36
f 64//37 38//37 39//37 65//37
f 63//38 37//38 38//38 64//38
f 51//39 50//39 119//39 118//39
f 12//40 10//40 50//40 51//40
f 10//41 8//41 49//41 50//41
f 4//42 2//42 46//42 47//42
f 8//43 6//43 48//43 49//43
f 6//44 4//44 47//44 48//44
f 2//45 18//45 54//45 46//45
f 18//46 16//46 53//46 54//46
f 16//47 14//47 52//47 53//47
f 80//38 62//38 55//38 72//38
f 64//48 65//48 93//48 92//48
f 73//49 72//49 95//49 96//49
f 74//35 57//35 58//35 75//35
f 68//50 69//50 86//50 85//50
f 58//51 67//51 84//51 81//51
f 77//32 60//32 61//32 78//32
f 61//52 70//52 101//52 56//52
f 62//53 80//53 105//53 99//53
f 62//38 63//38 64//38 55//38
f 72//54 55//54 59//54 95//54
f 57//55 74//55 97//55 91//55
f 57//35 66//35 67//35 58//35
f 69//56 60//56 83//56 86//56
f 76//57 75//57 87//57 88//57
f 60//32 69//32 70//32 61//32
f 71//58 63//58 100//58 102//58
f 79//59 78//59 103//59 104//59
f 35//30 78//30 79//30 36//30
f 36//31 79//31 80//31 28//31
f 34//32 77//32 78//32 35//32
f 33//33 76//33 77//33 34//33
f 32//34 75//34 76//34 33//34
f 31//35 74//35 75//35 32//35
f 30//36 73//36 74//36 31//36
f 29//37 72//37 73//37 30//37
f 28//38 80//38 72//38 29//38
f 87//34 81//34 82//34 88//34
f 88//33 82//33 83//33 89//33
f 81//34 84//34 85//34 82//34
f 82//33 85//33 86//33 83//33
f 60//56 77//56 89//56 83//56
f 75//51 58//51 81//51 87//51
f 77//60 76//60 88//60 89//60
f 67//61 68//61 85//61 84//61
f 95//37 59//37 90//37 96//37
f 96//36 90//36 91//36 97//36
f 59//37 92//37 93//37 90//37
f 90//36 93//36 94//36 91//36
f 66//55 57//55 91//55 94//55
f 55//54 64//54 92//54 59//54
f 74//62 73//62 96//62 97//62
f 65//63 66//63 94//63 93//63
f 104//31 98//31 99//31 105//31
f 103//30 56//30 98//30 104//30
f 98//31 102//31 100//31 99//31
f 56//30 101//30 102//30 98//30
f 80//64 79//64 104//64 105//64
f 70//65 71//65 102//65 101//65
f 78//52 61//52 56//52 103//52
f 63//53 62//53 99//53 100//53
f 116//66 117//66 112//66 113//66
f 48//39 47//39 122//39 121//39
f 46//39 54//39 115//39 123//39
f 52//39 51//39 118//39 117//39
f 49//39 48//39 121//39 120//39
f 54//39 53//39 116//39 115//39
f 53//39 52//39 117//39 116//39
f 50//39 49//39 120//39 119//39
f 47//39 46//39 123//39 122//39
f 107//67 106//67 114//67 113//67 112//67 111//67 110//67 109//67 108//67
f 115//68 116//68 113//68 114//68
f 119//69 120//69 109//69 110//69
f 117//70 118//70 111//70 112//70
f 120//71 121//71 108//71 109//71
f 122//72 123//72 106//72 107//72
f 121//73 122//73 107//73 108//73
f 118//74 119//74 110//74 111//74
f 123//75 115//75 114//75 106//75
